<?xml version="1.0" encoding="UTF-8"?>
<svg id="Camada_2" data-name="Camada 2" xmlns="http://www.w3.org/2000/svg" viewBox="0 0 322.36 97.25">
  <defs>
    <style>
      .cls-1 {
        fill: #283be8;
      }

      .cls-1, .cls-2 {
        stroke-width: 0px;
      }

      .cls-2 {
        fill: #010326;
      }
    </style>
  </defs>
  <g id="TEXTS">
    <path class="cls-2" d="m168.27,81.7c.79,2.43-1.23,5.28-3.7,5.28h-14.68c-1.29,0-2.38-.82-2.76-2.08l-1.5-4.88h-30.27l-1.07,1.65-2.43,3.44c-.83,1.16-2.18,1.89-3.53,1.89h-15.5c-2.84,0-4.19-3.03-2.43-5.46l37.26-56.42c2.4-3.24,5.51-3.49,8.75-3.62h0c1.19-.01,7.65.06,8.55.05,1.28,0,3.86.76,4.89,3.71l18.42,56.44Zm-32.4-32.95l-9.64,14.69h14.29l-4.65-14.69Z"/>
    <path class="cls-2" d="m248,25.76l-1.68,9.24c-.41,2.29-2.57,4.08-4.9,4.08h-39.29c-.9,0-1.8.74-1.96,1.63l-.73,4.05c-.07.39,0,.74.23,1s.55.4.95.4h29.05c4.76,0,8.9,1.83,11.68,5.15,2.77,3.31,3.83,7.71,2.99,12.37l-1.09,6.01c-1.72,9.54-11.02,17.29-20.73,17.29h-44.04c-2.4,0-4.04-1.96-3.61-4.32l1.75-9.7c.42-2.29,2.57-4.08,4.9-4.08h40.39c.9,0,1.8-.74,1.96-1.63l.55-3.04c.07-.39-.01-.74-.23-1s-.55-.4-.95-.4h-29.05c-4.76,0-8.9-1.83-11.68-5.14-2.77-3.31-3.83-7.71-2.99-12.37l1.19-6.56c1.72-9.53,11.02-17.29,20.73-17.29h42.95c2.4,0,4.04,1.95,3.61,4.32Z"/>
    <path class="cls-2" d="m321.7,25.66l-29.23,37.41-.72,1.61-3.29,18.22c-.42,2.29-2.57,4.08-4.9,4.08h-12.14c-2.4,0-4.04-1.95-3.61-4.31l3.29-18.2c-.06-.58-.12-1.14-.19-1.73l-15.63-37.23c-.34-.82-.22-1.76.33-2.59.61-.93,1.65-1.5,2.71-1.5h15.4c1.54,0,2.83.82,3.37,2.15l7.96,18.96c.07.16.21.19.26.19.05,0,.16,0,.24-.09l15.01-19.21c.98-1.25,2.45-2,3.95-2h15.4c2.2,0,3.23,2.39,1.79,4.24h0Z"/>
    <g>
      <path class="cls-1" d="m67.37,75.35c-10.05,7.06-23.68,8.13-35.04,1.63-6.92-3.96-11.83-10.06-14.4-16.98,6.89,3.39,19.48,7.7,37.42,6.41,9.24-.67,18.05-4.07,24.79-9.44.09-.07.18-.14.27-.21,13.65-11.05,14.25-31.77,1.39-43.73-3.17-2.95-6.79-5.52-10.83-7.62C48.72-6.14,20.94,1.38,7.56,22.58-7.33,46.15.54,77.1,24.48,90.81c18.18,10.41,40.26,7.79,55.43-4.93l-12.54-10.53ZM16.7,41.41c.7-3.09,1.86-6.13,3.52-9.02,8.34-14.56,26.19-20.27,41.24-13.78.25.1.5.22.75.33.21.1.41.2.62.29.2.1.39.19.58.29,2.67,1.39,8.99,5.18,10.56,10.66.38,1.57.48,3.46-.08,5.6-2.55,9.89-23.04,27.05-57.19,5.63Z"/>
      <path class="cls-1" d="m67.37,75.35c-10.05,7.06-23.68,8.13-35.04,1.63-6.92-3.96-11.83-10.06-14.4-16.98,6.89,3.39,19.48,7.7,37.42,6.41,9.24-.67,18.05-4.07,24.79-9.44.09-.07.18-.14.27-.21,13.64-11.05,14.24-31.77,1.39-43.73-3.16-2.95-6.79-5.52-10.83-7.62C48.72-6.14,20.95,1.38,7.55,22.58-7.33,46.15.54,77.1,24.48,90.81c18.18,10.41,40.26,7.79,55.43-4.93l-12.54-10.53ZM16.7,41.39c.7-3.07,1.87-6.11,3.52-9,8.34-14.56,26.19-20.27,41.24-13.78.25.1.5.22.75.33.21.1.41.2.62.29.2.09.39.19.58.29,2.66,1.39,8.98,5.17,10.56,10.66.38,1.57.48,3.45-.08,5.6-2.55,9.89-23.04,27.05-57.19,5.63,0,0,0,0,0-.02Z"/>
      <path class="cls-1" d="m81.58,88.87c-1.05,1.44-2.32,1.08-2.32,1.08,0,0,.38,1.08-.69,2.23-1.02,1.11-3.42.09-5.03-.52-.76-.29-1.5-.29-1.75-.28h-.01c-.06,0-.09,0-.09,0-.94.52-1.93,1.02-2.95,1.52,0,0-.02,0-.02,0-13.74,6.2-30.16,5.96-44.23-2.11-10.92-6.25-18.5-16.11-22.1-27.21.38.86,16.83,26.16,41.08,23.98,15.6-1.4,20.26-10.01,20.26-10.01,0,0,2.29-3.2,5.02-4.87,2.72-1.68,7.28-5.89,7.04-9.36-.25-3.47,5.19-2.96,5.57,1.42.4,4.38-4.44,8.74-4.44,8.74,0,0,1.46.64,2.89,1.24,1.84.76,5.43,2.02,6.26,3.79.13.26.2.58.2.93.02.6-.18,1.25-.68,1.75-.69.69-1.46.85-1.46.85,0,0,1.16,1.19.27,2.75-1.1,1.9-2.73,1.7-2.73,1.7,0,0,.83,1.12-.07,2.36Z"/>
      <path class="cls-1" d="m16.7,41.41c34.15,21.42,54.64,4.26,57.19-5.63.56-2.14.45-4.03.08-5.6-1.57-5.48-7.89-9.27-10.56-10.66-.19-.1-.38-.2-.58-.29-.2-.1-.41-.19-.62-.29-.25-.11-.5-.23-.75-.33-15.05-6.5-32.9-.78-41.24,13.78-1.65,2.89-2.82,5.93-3.52,9,.09-.65,3.4-26.08,29.61-30.09,10.38-1.58,34.93,2.81,35.39,22.59.3,12.73-16.67,20.26-25.37,21.54-14.17,2.08-31.01-5.92-39.63-14.02Z"/>
    </g>
  </g>
</svg>